<?xml version="1.0" encoding="UTF-8"?>
<!DOCTYPE svg PUBLIC "-//W3C//DTD SVG 1.1//EN" "http://www.w3.org/Graphics/SVG/1.1/DTD/svg11.dtd">
<!-- Creator: CorelDRAW 2019 (64-Bit) -->
<svg xmlns="http://www.w3.org/2000/svg" xml:space="preserve" width="106.434mm" height="101.495mm" version="1.1" style="shape-rendering:geometricPrecision; text-rendering:geometricPrecision; image-rendering:optimizeQuality; fill-rule:evenodd; clip-rule:evenodd"
viewBox="0 0 5137.19 4898.8"
 xmlns:xlink="http://www.w3.org/1999/xlink">
 <defs>
  <style type="text/css">
   <![CDATA[
    .fil0 {fill:#010101}
   ]]>
  </style>
 </defs>
 <g id="Layer_x0020_1">
  <metadata id="CorelCorpID_0Corel-Layer"/>
  <path class="fil0" d="M10.93 2585.57c96.05,-43.08 600.84,-547.21 1305.34,-486.49 -172.78,126.34 -348.78,214.39 -599.68,403.81 -445.52,336.34 -704.75,738.2 -704.01,1357.82 0.3,253.29 -32.41,814.99 6.55,1031.88l1741.05 -1.17c17.18,-136.13 4.66,-1671.49 5.11,-1950.18 0.33,-198.27 -14.78,-469.37 9.85,-658.74 183.91,1138.74 885.3,2115.32 2003.43,2460.89 459.81,142.12 824.24,168.84 1339.96,150.14l7.43 -2580.5c-54.79,27.35 -78.47,59.64 -126.68,96.53l-419.75 244.79c-216.62,92.37 -487.56,163.29 -752.65,146.41 129.33,-195.86 1291.93,-499.77 1298.89,-1766.54 1.37,-247.93 29.37,-819.72 -7.66,-1032.04l-1723.55 1.52c-25.06,166.01 -9.1,1050.8 -13.47,1302.93 -6.83,393.84 29.93,933.66 -20.81,1304.64 -18.93,-417.56 -384.66,-1207.52 -664.12,-1551.43 -347.8,-428.03 -759.14,-730.7 -1335.06,-912.71 -478.88,-151.33 -817.66,-151.87 -1341.94,-144.93l-8.22 2583.39z"/>
 </g>
</svg>
