<?xml version="1.0" encoding="utf-8"?>
<svg version="1.1" id="Layer_1" xmlns="http://www.w3.org/2000/svg" xmlns:xlink="http://www.w3.org/1999/xlink" x="0px" y="0px"
	 viewBox="0 0 2853 1342" style="enable-background:new 0 0 2853 1342;" xml:space="preserve">
<style type="text/css">
	.st0{fill:#76B5E8;}
	.st1{fill:#538AC9;}
	.st2{fill:#4D7CA9;}
	.st3{fill:#201600;}
</style>
<g>
	<g>
		<g>
			<g>
				<polygon class="st0" points="868.4,504.4 669.2,538.4 565.7,330.8 				"/>
			</g>
			<g>
				<polygon class="st1" points="669.2,538.4 665.2,557.5 567.7,1011.2 565.7,330.8 				"/>
			</g>
			<g>
				<polygon class="st2" points="812.1,755.6 567.7,1011.2 665.2,557.5 669.2,538.4 684.7,561.9 				"/>
			</g>
			<g>
				<polygon class="st1" points="868.5,504.4 868.5,504.5 868.4,504.5 834.9,654.2 812.1,755.6 684.7,561.9 669.2,538.4 
					868.4,504.4 868.5,504.4 				"/>
				<polygon class="st2" points="1155.9,669.3 812.1,755.6 834.9,654.2 868.4,504.5 868.5,504.5 868.5,504.4 				"/>
			</g>
		</g>
	</g>
	<g>
		<path class="st3" d="M1359.5,836.4h-93.6l-20.5,45.4h-12.7l74.2-161.4h11.8l74.2,161.4h-12.7L1359.5,836.4z M1355.1,826.5
			l-42.4-93.1l-42.2,93.1H1355.1z"/>
		<path class="st3" d="M1524.3,710.7v171H1513v-28.4c-4.8,9.4-11.5,16.6-20.1,21.7c-8.6,5.1-18.4,7.6-29.3,7.6
			c-11.2,0-21.4-2.6-30.4-7.8c-9.1-5.2-16.2-12.4-21.3-21.7c-5.2-9.2-7.7-19.7-7.7-31.6c0-11.8,2.6-22.4,7.7-31.7
			c5.1-9.3,12.3-16.5,21.3-21.7c9.1-5.1,19.2-7.7,30.4-7.7c10.8,0,20.4,2.5,28.9,7.6c8.5,5.1,15.3,12.1,20.2,21.2v-78.6H1524.3z
			 M1489.2,865.9c7.3-4.3,13.1-10.3,17.3-18c4.2-7.7,6.3-16.4,6.3-26.3c0-9.8-2.1-18.6-6.3-26.3c-4.2-7.7-10-13.7-17.3-18
			c-7.3-4.3-15.6-6.5-24.8-6.5s-17.5,2.2-24.8,6.5c-7.3,4.3-13.1,10.3-17.3,18c-4.2,7.7-6.3,16.4-6.3,26.3c0,9.8,2.1,18.6,6.3,26.3
			c4.2,7.7,10,13.7,17.3,18c7.3,4.3,15.6,6.5,24.8,6.5S1481.9,870.2,1489.2,865.9z"/>
		<path class="st3" d="M1747.2,871.2v10.6h-111.3V720.4h107.9V731h-96.1v63.6h86V805h-86v66.2H1747.2z"/>
		<path class="st3" d="M1891.3,710.7v171H1880v-28.4c-4.8,9.4-11.5,16.6-20.1,21.7c-8.6,5.1-18.4,7.6-29.3,7.6
			c-11.2,0-21.4-2.6-30.4-7.8c-9.1-5.2-16.2-12.4-21.3-21.7c-5.2-9.2-7.7-19.7-7.7-31.6c0-11.8,2.6-22.4,7.7-31.7
			c5.1-9.3,12.3-16.5,21.3-21.7c9.1-5.1,19.2-7.7,30.4-7.7c10.8,0,20.4,2.5,28.9,7.6c8.5,5.1,15.3,12.1,20.2,21.2v-78.6H1891.3z
			 M1856.1,865.9c7.3-4.3,13.1-10.3,17.3-18c4.2-7.7,6.3-16.4,6.3-26.3c0-9.8-2.1-18.6-6.3-26.3c-4.2-7.7-10-13.7-17.3-18
			c-7.3-4.3-15.6-6.5-24.8-6.5s-17.5,2.2-24.8,6.5c-7.3,4.3-13.1,10.3-17.3,18c-4.2,7.7-6.3,16.4-6.3,26.3c0,9.8,2.1,18.6,6.3,26.3
			c4.2,7.7,10,13.7,17.3,18c7.3,4.3,15.6,6.5,24.8,6.5S1848.8,870.2,1856.1,865.9z"/>
		<path class="st3" d="M1939,729.5c-1.8-1.8-2.8-4-2.8-6.6c0-2.6,0.9-4.8,2.8-6.7c1.8-1.8,4.1-2.8,6.7-2.8c2.6,0,4.8,0.9,6.7,2.7
			c1.8,1.8,2.8,4,2.8,6.6c0,2.6-0.9,4.8-2.8,6.7c-1.8,1.8-4.1,2.8-6.7,2.8C1943.1,732.2,1940.9,731.3,1939,729.5z M1939.9,761.5
			h11.5v120.3h-11.5V761.5z"/>
		<path class="st3" d="M2059.8,874.2c-2.9,2.8-6.6,4.9-10.9,6.3c-4.4,1.5-9,2.2-13.7,2.2c-10.5,0-18.5-2.9-24.2-8.6
			c-5.7-5.8-8.5-13.8-8.5-24.1v-78.6h-22.1v-9.9h22.1v-26.3h11.5v26.3h38.3v9.9h-38.3v77.5c0,7.8,1.9,13.8,5.6,17.9
			c3.8,4.1,9.3,6.1,16.7,6.1c7.5,0,13.8-2.2,18.7-6.7L2059.8,874.2z"/>
		<path class="st3" d="M2103.7,874.9c-9.1-5.2-16.3-12.5-21.6-21.8c-5.2-9.3-7.8-19.8-7.8-31.5c0-11.7,2.6-22.2,7.8-31.5
			c5.2-9.3,12.4-16.6,21.6-21.8c9.1-5.2,19.4-7.8,30.8-7.8c11.4,0,21.6,2.6,30.8,7.8c9.1,5.2,16.3,12.5,21.6,21.8
			c5.2,9.3,7.8,19.8,7.8,31.5c0,11.7-2.6,22.2-7.8,31.5c-5.2,9.3-12.4,16.6-21.6,21.8c-9.1,5.2-19.4,7.8-30.8,7.8
			C2123.1,882.7,2112.9,880.1,2103.7,874.9z M2159.3,865.9c7.3-4.3,13.1-10.3,17.3-18c4.2-7.7,6.3-16.4,6.3-26.3
			c0-9.8-2.1-18.6-6.3-26.3c-4.2-7.7-10-13.7-17.3-18c-7.3-4.3-15.6-6.5-24.8-6.5s-17.5,2.2-24.8,6.5c-7.3,4.3-13.1,10.3-17.3,18
			c-4.2,7.7-6.3,16.4-6.3,26.3c0,9.8,2.1,18.6,6.3,26.3c4.2,7.7,10,13.7,17.3,18c7.3,4.3,15.6,6.5,24.8,6.5S2152,870.2,2159.3,865.9
			z"/>
		<path class="st3" d="M2258.7,767.6c7.8-4.7,17.4-7,28.6-7v11.3l-2.8-0.2c-13.4,0-23.8,4.2-31.4,12.6c-7.5,8.4-11.3,20-11.3,34.9
			v62.7h-11.5V761.5h11.1v26.3C2245.1,779,2250.9,772.3,2258.7,767.6z"/>
	</g>
	<g>
		<path class="st1" d="M1401.1,408.1c16.5,7.5,29.2,18.1,38.2,31.8c8.9,13.7,13.4,30,13.4,48.8c0,18.6-4.5,34.8-13.4,48.7
			c-8.9,13.9-21.7,24.5-38.2,31.8c-16.5,7.4-36,11-58.4,11h-51v69.8h-58.6V396.9h109.6C1365.1,396.9,1384.6,400.6,1401.1,408.1z
			 M1379.6,521.2c9.2-7.6,13.7-18.4,13.7-32.4c0-14.2-4.6-25.1-13.7-32.7c-9.2-7.6-22.6-11.4-40.2-11.4h-47.8v87.9h47.8
			C1357.1,532.6,1370.5,528.8,1379.6,521.2z"/>
		<path class="st1" d="M1662.4,408.1c16.5,7.5,29.2,18.1,38.2,31.8c8.9,13.7,13.4,30,13.4,48.8c0,18.6-4.5,34.8-13.4,48.7
			c-8.9,13.9-21.7,24.5-38.2,31.8c-16.5,7.4-36,11-58.4,11h-51v69.8h-58.6V396.9H1604C1626.4,396.9,1645.9,400.6,1662.4,408.1z
			 M1640.9,521.2c9.2-7.6,13.7-18.4,13.7-32.4c0-14.2-4.6-25.1-13.7-32.7c-9.2-7.6-22.6-11.4-40.2-11.4h-47.8v87.9h47.8
			C1618.3,532.6,1631.7,528.8,1640.9,521.2z"/>
		<path class="st1" d="M1812.4,633.3c-20.1-10.8-35.8-25.7-47.3-44.9c-11.5-19.1-17.2-40.8-17.2-64.9c0-24.1,5.7-45.7,17.2-64.9
			c11.5-19.1,27.2-34.1,47.3-44.9c20.1-10.8,42.6-16.2,67.7-16.2c21.1,0,40.2,3.7,57.2,11.1c17,7.4,31.4,18.1,43,32l-36.2,33.4
			c-16.5-19-36.9-28.5-61.2-28.5c-15.1,0-28.5,3.3-40.3,9.9c-11.8,6.6-21,15.8-27.7,27.7c-6.6,11.8-9.9,25.3-9.9,40.3
			c0,15.1,3.3,28.5,9.9,40.3c6.6,11.8,15.8,21,27.7,27.7c11.8,6.6,25.3,9.9,40.3,9.9c24.3,0,44.8-9.6,61.2-28.9l36.2,33.4
			c-11.6,14.1-26,24.9-43.1,32.3c-17.2,7.4-36.3,11.1-57.4,11.1C1854.9,649.5,1832.5,644.1,1812.4,633.3z"/>
	</g>
</g>
</svg>


























